<svg width="17" height="17" viewBox="0 0 17 17" fill="none" xmlns="http://www.w3.org/2000/svg">
<path d="M3.39396 9.62718C2.78626 10.0422 2.48242 10.729 2.48242 11.6877C2.48242 13.1256 4.25 15.5835 5.84393 15.5835C7.43782 15.5835 8.36223 15.5835 9.9223 15.5835C11.4824 15.5835 12.43 14.2197 12.43 13.1256C12.43 11.6546 12.43 10.1837 12.43 8.71266C12.43 8.07763 11.9161 7.56232 11.2811 7.56055C10.6483 7.55878 10.1339 8.0703 10.1321 8.70306C10.1321 8.70412 10.1321 8.70518 10.1321 8.70624V8.74219" stroke="#007AFF" stroke-width="1.16667" stroke-linecap="round"/>
<path d="M3.88916 10.4284V2.71363C3.88916 2.08435 4.3993 1.57422 5.02859 1.57422C5.65787 1.57422 6.16797 2.08435 6.16797 2.71363V8.37513" stroke="#007AFF" stroke-width="1.16667" stroke-linecap="round"/>
<path d="M6.16797 8.49948V7.01464C6.16797 6.46614 6.61262 6.02148 7.16112 6.02148C7.70962 6.02148 8.15428 6.46614 8.15428 7.01464V8.65075" stroke="#007AFF" stroke-width="1.16667" stroke-linecap="round" stroke-linejoin="round"/>
<path d="M8.146 8.73325V7.72362C8.146 7.17512 8.59065 6.73047 9.13915 6.73047C9.68765 6.73047 10.1323 7.17512 10.1323 7.72362V8.85547" stroke="#007AFF" stroke-width="1.16667" stroke-linecap="round" stroke-linejoin="round"/>
<path d="M3.896 2.83398H14.521" stroke="#007AFF" stroke-width="1.16667" stroke-linecap="round"/>
<path d="M12.75 4.42773L13.3403 3.89648L14.5208 2.83398L13.3403 1.77148L12.75 1.24023" stroke="#007AFF" stroke-width="1.16667" stroke-linecap="round" stroke-linejoin="round"/>
</svg>
