<svg width="17" height="17" viewBox="0 0 17 17" fill="none" xmlns="http://www.w3.org/2000/svg">
<g clip-path="url(#clip0_828_64612)">
<path d="M1.97404 9.62718C1.36634 10.0422 1.0625 10.729 1.0625 11.6877C1.0625 13.1256 2.83008 15.5835 4.42401 15.5835C6.0179 15.5835 6.94231 15.5835 8.50238 15.5835C10.0625 15.5835 11.0101 14.2197 11.0101 13.1256C11.0101 11.6546 11.0101 10.1837 11.0101 8.71266C11.0101 8.07763 10.4962 7.56232 9.86114 7.56055C9.22839 7.55878 8.71399 8.0703 8.71222 8.70306C8.71222 8.70412 8.71222 8.70518 8.71222 8.70624V8.74219" stroke="#06D6A0" stroke-width="1.16667" stroke-linecap="round"/>
<path d="M2.46973 10.4284V2.71363C2.46973 2.08435 2.97987 1.57422 3.60915 1.57422C4.23843 1.57422 4.74854 2.08435 4.74854 2.71363V8.37514" stroke="#06D6A0" stroke-width="1.16667" stroke-linecap="round"/>
<path d="M4.74805 8.49948V7.01464C4.74805 6.46614 5.1927 6.02148 5.7412 6.02148C6.2897 6.02148 6.73435 6.46614 6.73435 7.01464V8.65075" stroke="#06D6A0" stroke-width="1.16667" stroke-linecap="round" stroke-linejoin="round"/>
<path d="M6.72559 8.73325V7.72362C6.72559 7.17512 7.17024 6.73047 7.71874 6.73047C8.26724 6.73047 8.71189 7.17512 8.71189 7.72362V8.85547" stroke="#06D6A0" stroke-width="1.16667" stroke-linecap="round" stroke-linejoin="round"/>
<path d="M13.9863 3.1875L13.9863 13.8125" stroke="#06D6A0" stroke-width="1.16667" stroke-linecap="round"/>
<path d="M12.3926 12.043L12.9238 12.6333L13.9863 13.8138L15.0488 12.6333L15.5801 12.043" stroke="#06D6A0" stroke-width="1.16667" stroke-linecap="round" stroke-linejoin="round"/>
</g>
<defs>
<clipPath id="clip0_828_64612">
<rect width="17" height="17" fill="white"/>
</clipPath>
</defs>
</svg>
