<svg width="24" height="25" viewBox="0 0 24 25" fill="none" xmlns="http://www.w3.org/2000/svg">
<path fill-rule="evenodd" clip-rule="evenodd" d="M12.9684 16H11.0484C9.72295 16 8.64844 17.1193 8.64844 18.5V22.5C8.64844 22.7761 8.86334 23 9.12844 23H14.8884C15.1535 23 15.3684 22.7761 15.3684 22.5V18.5C15.3684 17.1193 14.2939 16 12.9684 16ZM14.4084 18.5V22H9.60844V18.5C9.60844 17.6716 10.2531 17 11.0484 17H12.9684C13.7637 17 14.4084 17.6716 14.4084 18.5Z" fill="black"/>
<path d="M14.4084 22V22.1H14.5084V22H14.4084ZM9.60844 22H9.50844V22.1H9.60844V22ZM11.0484 16.1H12.9684V15.9H11.0484V16.1ZM8.74844 18.5C8.74844 17.1706 9.78199 16.1 11.0484 16.1V15.9C9.66392 15.9 8.54844 17.0679 8.54844 18.5H8.74844ZM8.74844 22.5V18.5H8.54844V22.5H8.74844ZM9.12844 22.9C8.92238 22.9 8.74844 22.7248 8.74844 22.5H8.54844C8.54844 22.8275 8.8043 23.1 9.12844 23.1V22.9ZM14.8884 22.9H9.12844V23.1H14.8884V22.9ZM15.2684 22.5C15.2684 22.7248 15.0945 22.9 14.8884 22.9V23.1C15.2126 23.1 15.4684 22.8275 15.4684 22.5H15.2684ZM15.2684 18.5V22.5H15.4684V18.5H15.2684ZM12.9684 16.1C14.2349 16.1 15.2684 17.1706 15.2684 18.5H15.4684C15.4684 17.0679 14.353 15.9 12.9684 15.9V16.1ZM14.5084 22V18.5H14.3084V22H14.5084ZM9.60844 22.1H14.4084V21.9H9.60844V22.1ZM9.50844 18.5V22H9.70844V18.5H9.50844ZM11.0484 16.9C10.1941 16.9 9.50844 17.6202 9.50844 18.5H9.70844C9.70844 17.7229 10.3122 17.1 11.0484 17.1V16.9ZM12.9684 16.9H11.0484V17.1H12.9684V16.9ZM14.5084 18.5C14.5084 17.6202 13.8228 16.9 12.9684 16.9V17.1C13.7047 17.1 14.3084 17.7229 14.3084 18.5H14.5084Z" fill="black"/>
<path fill-rule="evenodd" clip-rule="evenodd" d="M20.1685 20.5V10.8227L21.2874 11.8716C21.4844 12.0564 21.7879 12.0397 21.9653 11.8345C22.1426 11.6292 22.1266 11.3131 21.9296 11.1284L12.3296 2.12835C12.147 1.95722 11.8699 1.95722 11.6874 2.12835L2.08737 11.1284C1.89032 11.3131 1.87435 11.6292 2.05169 11.8345C2.22903 12.0397 2.53253 12.0564 2.72957 11.8716L3.84847 10.8227V20.5C3.84847 21.8807 4.92299 23 6.24847 23H17.7685C19.094 23 20.1685 21.8807 20.1685 20.5ZM12.0085 3.17261L19.2435 9.95541C19.2201 10.0026 19.2085 10.051 19.2085 10.1007V20.4999C19.2085 21.3284 18.5638 21.9999 17.7685 21.9999H6.24848C5.45319 21.9999 4.80848 21.3284 4.80848 20.4999V10.1007C4.80848 10.0463 4.80013 9.99392 4.78471 9.94489L12.0085 3.17261Z" fill="black"/>
<path d="M20.1685 10.8227L20.2369 10.7497L20.0685 10.5919V10.8227H20.1685ZM21.2874 11.8716L21.3558 11.7987L21.3558 11.7987L21.2874 11.8716ZM21.9653 11.8345L21.8896 11.7691L21.8896 11.7691L21.9653 11.8345ZM21.9296 11.1284L21.998 11.0554L21.998 11.0554L21.9296 11.1284ZM12.3296 2.12835L12.2612 2.20131L12.2612 2.20131L12.3296 2.12835ZM11.6874 2.12835L11.619 2.0554L11.619 2.0554L11.6874 2.12835ZM2.08737 11.1284L2.01897 11.0554L2.01897 11.0554L2.08737 11.1284ZM2.05169 11.8345L1.97602 11.8999L1.97602 11.8999L2.05169 11.8345ZM2.72957 11.8716L2.66118 11.7987L2.66118 11.7987L2.72957 11.8716ZM3.84847 10.8227H3.94847V10.5919L3.78008 10.7497L3.84847 10.8227ZM19.2435 9.95541L19.3331 9.99974L19.366 9.93321L19.3119 9.88245L19.2435 9.95541ZM12.0085 3.17261L12.0769 3.09965L12.0085 3.03553L11.9401 3.09965L12.0085 3.17261ZM4.78471 9.94489L4.71632 9.87193L4.67046 9.91493L4.68932 9.97489L4.78471 9.94489ZM20.0685 10.8227V20.5H20.2685V10.8227H20.0685ZM21.3558 11.7987L20.2369 10.7497L20.1001 10.8956L21.219 11.9446L21.3558 11.7987ZM21.8896 11.7691C21.7491 11.9317 21.511 11.9443 21.3558 11.7987L21.219 11.9446C21.4578 12.1685 21.8267 12.1478 22.0409 11.8999L21.8896 11.7691ZM21.8612 11.2013C22.0188 11.3491 22.0321 11.6042 21.8896 11.7691L22.0409 11.8999C22.2531 11.6543 22.2344 11.2771 21.998 11.0554L21.8612 11.2013ZM12.2612 2.20131L21.8612 11.2013L21.998 11.0554L12.398 2.0554L12.2612 2.20131ZM11.7558 2.20131C11.8998 2.06623 12.1171 2.06623 12.2612 2.20131L12.398 2.0554C12.177 1.8482 11.84 1.8482 11.619 2.0554L11.7558 2.20131ZM2.15576 11.2013L11.7558 2.20131L11.619 2.0554L2.01897 11.0554L2.15576 11.2013ZM2.12736 11.7691C1.98484 11.6042 1.99813 11.3491 2.15576 11.2013L2.01897 11.0554C1.78251 11.2771 1.76385 11.6543 1.97602 11.8999L2.12736 11.7691ZM2.66118 11.7987C2.5059 11.9443 2.26783 11.9317 2.12736 11.7691L1.97602 11.8999C2.19023 12.1478 2.55916 12.1685 2.79797 11.9446L2.66118 11.7987ZM3.78008 10.7497L2.66118 11.7987L2.79797 11.9446L3.91687 10.8956L3.78008 10.7497ZM3.94847 20.5V10.8227H3.74847V20.5H3.94847ZM6.24847 22.9C4.98202 22.9 3.94847 21.8294 3.94847 20.5H3.74847C3.74847 21.9321 4.86395 23.1 6.24847 23.1V22.9ZM17.7685 22.9H6.24847V23.1H17.7685V22.9ZM20.0685 20.5C20.0685 21.8294 19.0349 22.9 17.7685 22.9V23.1C19.153 23.1 20.2685 21.9321 20.2685 20.5H20.0685ZM19.3119 9.88245L12.0769 3.09965L11.9401 3.24556L19.1751 10.0284L19.3119 9.88245ZM19.3085 10.1007C19.3085 10.0673 19.3162 10.0339 19.3331 9.99974L19.1538 9.91108C19.1241 9.97119 19.1085 10.0347 19.1085 10.1007H19.3085ZM19.3085 20.4999V10.1007H19.1085V20.4999H19.3085ZM17.7685 22.0999C18.6228 22.0999 19.3085 21.3797 19.3085 20.4999H19.1085C19.1085 21.277 18.5047 21.8999 17.7685 21.8999V22.0999ZM6.24848 22.0999H17.7685V21.8999H6.24848V22.0999ZM4.70848 20.4999C4.70848 21.3797 5.39415 22.0999 6.24848 22.0999V21.8999C5.51222 21.8999 4.90848 21.277 4.90848 20.4999H4.70848ZM4.70848 10.1007V20.4999H4.90848V10.1007H4.70848ZM4.68932 9.97489C4.70171 10.0143 4.70848 10.0566 4.70848 10.1007H4.90848C4.90848 10.036 4.89855 9.97354 4.8801 9.91488L4.68932 9.97489ZM11.9401 3.09965L4.71632 9.87193L4.85311 10.0178L12.0769 3.24556L11.9401 3.09965Z" fill="black"/>
</svg>
