<svg width="111" height="111" viewBox="0 0 111 111" fill="none" xmlns="http://www.w3.org/2000/svg">
<g clip-path="url(#clip0_1070_2272)">
<rect width="111" height="111" rx="55.5" fill="#02AD02"/>
<path d="M43.66 69.8492V70.0086C43.6161 73.3823 40.7794 75.9191 35.15 77.6192C41.9332 82.5524 48.7168 86.4992 55.5 86.4992C62.2832 86.4992 69.0668 82.5524 75.85 77.6192C70.2588 75.9172 67.4222 73.3765 67.34 69.9972C67.34 69.3948 67.3445 68.5394 67.3485 66.9332C67.3485 66.6781 67.3492 66.4169 67.3504 66.1495C67.7548 66.2065 67.7204 66.1702 67.3504 66.0674C67.3615 61.8424 67.3796 56.161 67.4048 50.3872C72.7076 43.5137 70.7596 35.4554 69.0979 35.6564C67.061 35.9046 49.4109 19.1555 46.0254 18.2967C42.6399 17.4379 34.04 20.2103 32.56 27.9341C31.08 35.6578 30.4614 55.1265 36.075 62.8991C37.6724 65.1109 40.1884 65.9761 43.623 65.4946C43.6278 67.1112 43.6375 68.0184 43.66 69.8492Z" fill="url(#paint0_linear_1070_2272)"/>
<path d="M43.6602 65.4888C51.8002 64.5638 56.9802 61.0488 56.9802 61.0488C56.9802 61.0488 51.3784 68.4921 43.6602 69.9288V65.4888Z" fill="#FFBE94"/>
<path d="M70.1147 50.505C72.664 44.3741 82.8797 31.8877 74.0737 24.1177C71.1137 9.68772 54.7597 11.285 43.8447 14.615C36.5087 16.8531 30.9687 21.275 29.7847 17.945C22.3847 24.1177 26.0906 30.155 30.9687 31.8877C35.3961 33.4602 42.8827 35.0327 55.6129 33.5527C57.887 33.2882 57.4108 40.2527 58.6258 41.0056C60.4488 42.1352 61.8637 35.0327 66.8617 37.1654C71.8596 39.2981 68.8937 49.1867 63.5287 49.1867C61.6787 49.1867 60.7537 54.2731 65.7487 56.6781C69.3747 58.46 68.4582 54.4888 70.1147 50.505Z" fill="url(#paint1_linear_1070_2272)"/>
<path d="M94.3496 88.9133C97.872 96.0754 99.8996 112.593 99.8996 112.593H11.0996C11.0996 112.593 13.1279 96.0736 16.6496 88.9133C20.1713 81.7531 40.7366 75.112 40.7366 75.112C44.7004 83.2494 66.4546 83.2494 70.2519 75.1094C70.2519 75.1094 90.8272 81.7512 94.3496 88.9133Z" fill="url(#paint2_linear_1070_2272)"/>
<mask id="mask0_1070_2272" style="mask-type:alpha" maskUnits="userSpaceOnUse" x="11" y="75" width="89" height="38">
<path d="M94.3496 88.9133C97.872 96.0754 99.8996 112.593 99.8996 112.593H11.0996C11.0996 112.593 13.1279 96.0736 16.6496 88.9133C20.1713 81.7531 40.7366 75.112 40.7366 75.112C44.7004 83.2494 66.4546 83.2494 70.2519 75.1094C70.2519 75.1094 90.8272 81.7512 94.3496 88.9133Z" fill="url(#paint3_linear_1070_2272)"/>
</mask>
<g mask="url(#mask0_1070_2272)">
<path d="M7.39941 105.08V102.12H103.599V105.08H7.39941ZM7.39941 97.6803V94.7203H103.599V97.6803H7.39941ZM7.39941 90.2803V87.3203H103.599V90.2803H7.39941Z" fill="url(#paint4_linear_1070_2272)"/>
</g>
</g>
<defs>
<linearGradient id="paint0_linear_1070_2272" x1="53.695" y1="18.1465" x2="53.695" y2="86.4992" gradientUnits="userSpaceOnUse">
<stop stop-color="#FFD4B3"/>
<stop offset="1" stop-color="#FFDCC2"/>
</linearGradient>
<linearGradient id="paint1_linear_1070_2272" x1="51.5927" y1="57.1163" x2="51.5927" y2="12.3535" gradientUnits="userSpaceOnUse">
<stop stop-color="#E6864E"/>
<stop offset="1" stop-color="#E67240"/>
</linearGradient>
<linearGradient id="paint2_linear_1070_2272" x1="55.4996" y1="112.593" x2="55.4996" y2="75.1094" gradientUnits="userSpaceOnUse">
<stop stop-color="#E6864E"/>
<stop offset="1" stop-color="#E67240"/>
</linearGradient>
<linearGradient id="paint3_linear_1070_2272" x1="55.4996" y1="112.593" x2="55.4996" y2="75.1094" gradientUnits="userSpaceOnUse">
<stop stop-color="#E6864E"/>
<stop offset="1" stop-color="#E67240"/>
</linearGradient>
<linearGradient id="paint4_linear_1070_2272" x1="55.4994" y1="87.3203" x2="55.4994" y2="105.08" gradientUnits="userSpaceOnUse">
<stop stop-color="#F7B186"/>
<stop offset="1" stop-color="#FFC299"/>
</linearGradient>
<clipPath id="clip0_1070_2272">
<rect width="111" height="111" rx="55.5" fill="white"/>
</clipPath>
</defs>
</svg>
