<svg width="16" height="16" viewBox="0 0 16 16" fill="none" xmlns="http://www.w3.org/2000/svg">
<path d="M6.33337 3.33341V2.33341C6.33337 1.96522 6.63184 1.66675 7.00004 1.66675H13.6667C14.0349 1.66675 14.3334 1.96522 14.3334 2.33341V9.66675C14.3334 10.0349 14.0349 10.3334 13.6667 10.3334H12.3334" stroke="#666666" stroke-width="1.16667" stroke-linecap="round" stroke-linejoin="round"/>
<path d="M8.99996 6H2.33329C1.9651 6 1.66663 6.29848 1.66663 6.66667V13.3333C1.66663 13.7015 1.9651 14 2.33329 14H8.99996C9.36815 14 9.66663 13.7015 9.66663 13.3333V6.66667C9.66663 6.29848 9.36815 6 8.99996 6Z" stroke="#666666" stroke-width="1.16667" stroke-linecap="round" stroke-linejoin="round"/>
<path d="M5.66663 8.33325V11.6666" stroke="#666666" stroke-width="1.16667" stroke-linecap="round" stroke-linejoin="round"/>
<path d="M4 10H7.33333" stroke="#666666" stroke-width="1.16667" stroke-linecap="round" stroke-linejoin="round"/>
</svg>
