<svg width="126" height="126" viewBox="0 0 126 126" fill="none" xmlns="http://www.w3.org/2000/svg">
<path fill-rule="evenodd" clip-rule="evenodd" d="M63 126C97.7939 126 126 97.7939 126 63C126 28.2061 97.7939 0 63 0C28.2061 0 0 28.2061 0 63C0 97.7939 28.2061 126 63 126Z" fill="white"/>
<path fill-rule="evenodd" clip-rule="evenodd" d="M63.0006 121.275C95.185 121.275 121.276 95.184 121.276 62.9996C121.276 30.8152 95.185 4.72461 63.0006 4.72461C30.8162 4.72461 4.72559 30.8152 4.72559 62.9996C4.72559 95.184 30.8162 121.275 63.0006 121.275Z" fill="#02AD02"/>
<mask id="mask0_1054_2246" style="mask-type:luminance" maskUnits="userSpaceOnUse" x="4" y="4" width="118" height="118">
<path fill-rule="evenodd" clip-rule="evenodd" d="M63.0006 121.275C95.185 121.275 121.276 95.184 121.276 62.9996C121.276 30.8152 95.185 4.72461 63.0006 4.72461C30.8162 4.72461 4.72559 30.8152 4.72559 62.9996C4.72559 95.184 30.8162 121.275 63.0006 121.275Z" fill="white"/>
</mask>
<g mask="url(#mask0_1054_2246)">
<path fill-rule="evenodd" clip-rule="evenodd" d="M62.5001 34.0879C50.8093 34.0879 41.3321 43.5651 41.3321 55.2559V57.5847C39.1861 57.9441 37.5508 59.8102 37.5508 62.0582V67.3502C37.5508 69.6383 39.2449 71.5307 41.4473 71.8415C42.2281 79.3285 46.9116 85.6549 53.4274 88.7505V95.7012H44.9168C33.7509 95.7012 24.6992 104.753 24.6992 115.919V126.319H100.299V115.919C100.299 104.753 91.2475 95.7012 80.0816 95.7012H71.5714V88.7512C78.0881 85.6557 82.7722 79.3287 83.553 71.841C85.7538 71.5289 87.4463 69.6372 87.4463 67.3502V62.0582C87.4463 59.8113 85.8125 57.9459 83.6681 57.5852V55.2559C83.6681 43.5651 74.1909 34.0879 62.5001 34.0879Z" fill="#D0C6AC"/>
<mask id="mask1_1054_2246" style="mask-type:luminance" maskUnits="userSpaceOnUse" x="24" y="34" width="77" height="93">
<path fill-rule="evenodd" clip-rule="evenodd" d="M62.5001 34.0879C50.8093 34.0879 41.3321 43.5651 41.3321 55.2559V57.5847C39.1861 57.9441 37.5508 59.8102 37.5508 62.0582V67.3502C37.5508 69.6383 39.2449 71.5307 41.4473 71.8415C42.2281 79.3285 46.9116 85.6549 53.4274 88.7505V95.7012H44.9168C33.7509 95.7012 24.6992 104.753 24.6992 115.919V126.319H100.299V115.919C100.299 104.753 91.2475 95.7012 80.0816 95.7012H71.5714V88.7512C78.0881 85.6557 82.7722 79.3287 83.553 71.841C85.7538 71.5289 87.4463 69.6372 87.4463 67.3502V62.0582C87.4463 59.8113 85.8125 57.9459 83.6681 57.5852V55.2559C83.6681 43.5651 74.1909 34.0879 62.5001 34.0879Z" fill="white"/>
</mask>
<g mask="url(#mask1_1054_2246)">
<rect x="14.1992" y="34.0879" width="108.054" height="96.876" fill="#D08B5B"/>
<path fill-rule="evenodd" clip-rule="evenodd" d="M41.3301 69.6192V72.6442C41.3301 84.335 50.8073 93.8122 62.4981 93.8122C74.1888 93.8122 83.6661 84.335 83.6661 72.6442V69.6191C83.6661 81.3099 74.1888 90.7872 62.4981 90.7872C50.8073 90.7872 41.3301 81.3099 41.3301 69.6192Z" fill="black" fill-opacity="0.1"/>
</g>
<path fill-rule="evenodd" clip-rule="evenodd" d="M72.704 97.1604C72.704 102.379 68.1346 106.61 62.498 106.61C56.8614 106.61 52.292 102.379 52.292 97.1604C52.292 96.7776 52.3166 96.4002 52.3644 96.0293H44.9158C33.75 96.0293 24.6982 105.081 24.6982 116.247V126.628H100.298V116.247C100.298 105.081 91.2465 96.0293 80.0807 96.0293H72.6317C72.6794 96.4002 72.704 96.7776 72.704 97.1604Z" fill="#E6E6E6"/>
<mask id="mask2_1054_2246" style="mask-type:luminance" maskUnits="userSpaceOnUse" x="24" y="96" width="77" height="31">
<path fill-rule="evenodd" clip-rule="evenodd" d="M72.704 97.1604C72.704 102.379 68.1346 106.61 62.498 106.61C56.8614 106.61 52.292 102.379 52.292 97.1604C52.292 96.7776 52.3166 96.4002 52.3644 96.0293H44.9158C33.75 96.0293 24.6982 105.081 24.6982 116.247V126.628H100.298V116.247C100.298 105.081 91.2465 96.0293 80.0807 96.0293H72.6317C72.6794 96.4002 72.704 96.7776 72.704 97.1604Z" fill="white"/>
</mask>
<g mask="url(#mask2_1054_2246)">
<rect x="12.6035" y="85.0527" width="98.9197" height="41.58" fill="white"/>
</g>
<path fill-rule="evenodd" clip-rule="evenodd" d="M53.4248 93.207C50.8672 94.9468 49.2676 97.4284 49.2676 100.183C49.2676 102.98 50.9163 105.495 53.5422 107.238L55.8546 105.416L57.5835 105.541L57.2059 104.352L57.2364 104.328C54.9291 103.14 53.4246 101.192 53.4246 98.9896C53.4246 98.974 53.4246 98.9583 53.4248 98.9427V93.207ZM71.5686 98.9895C71.5686 98.9896 71.5686 98.9896 71.5686 98.9896C71.5686 101.192 70.0639 103.14 67.7566 104.328L67.7885 104.353L67.4113 105.541L69.1384 105.416L71.2769 107.101C73.7851 105.364 75.3496 102.907 75.3496 100.183C75.3496 97.5661 73.9059 95.1956 71.5688 93.4735V98.9895H71.5686Z" fill="#28354B"/>
<path fill-rule="evenodd" clip-rule="evenodd" d="M56.4482 78.1426C56.4482 81.0653 58.8176 83.4346 61.7402 83.4346C64.6629 83.4346 67.0322 81.0653 67.0322 78.1426" fill="black" fill-opacity="0.7"/>
<path fill-rule="evenodd" clip-rule="evenodd" d="M57.874 68.5C57.874 70.1701 59.9049 71.524 62.41 71.524C64.9152 71.524 66.946 70.1701 66.946 68.5" fill="black" fill-opacity="0.16"/>
<path fill-rule="evenodd" clip-rule="evenodd" d="M52.6664 65.5575C53.919 65.5575 54.9344 64.5421 54.9344 63.2895C54.9344 62.0369 53.919 61.0215 52.6664 61.0215C51.4139 61.0215 50.3984 62.0369 50.3984 63.2895C50.3984 64.5421 51.4139 65.5575 52.6664 65.5575Z" fill="black" fill-opacity="0.6"/>
<path fill-rule="evenodd" clip-rule="evenodd" d="M72.3217 65.5575C73.5743 65.5575 74.5897 64.5421 74.5897 63.2895C74.5897 62.0369 73.5743 61.0215 72.3217 61.0215C71.0691 61.0215 70.0537 62.0369 70.0537 63.2895C70.0537 64.5421 71.0691 65.5575 72.3217 65.5575Z" fill="black" fill-opacity="0.6"/>
<path d="M47.2326 57.9559C48.7125 55.8737 52.7695 54.706 56.2641 55.5642C56.6696 55.6638 57.079 55.4158 57.1786 55.0103C57.2782 54.6048 57.0302 54.1954 56.6247 54.0958C52.5663 53.0992 47.8684 54.4513 46.0002 57.0801C45.7583 57.4204 45.8381 57.8924 46.1785 58.1342C46.5188 58.3761 46.9908 58.2963 47.2326 57.9559Z" fill="black" fill-opacity="0.6"/>
<path d="M77.7517 57.9559C76.2719 55.8737 72.2149 54.706 68.7203 55.5642C68.3148 55.6638 67.9054 55.4158 67.8058 55.0103C67.7062 54.6048 67.9542 54.1954 68.3597 54.0958C72.4181 53.0992 77.116 54.4513 78.9842 57.0801C79.2261 57.4204 79.1462 57.8924 78.8059 58.1342C78.4656 58.3761 77.9936 58.2963 77.7517 57.9559Z" fill="black" fill-opacity="0.6"/>
<mask id="mask3_1054_2246" style="mask-type:luminance" maskUnits="userSpaceOnUse" x="12" y="20" width="101" height="107">
<rect x="12.6025" y="20.4785" width="99.792" height="105.84" fill="white"/>
</mask>
<g mask="url(#mask3_1054_2246)">
<path fill-rule="evenodd" clip-rule="evenodd" d="M82.0334 35.2024C84.077 33.3312 84.5689 29.5372 83.4085 27.0756C81.9841 24.0533 79.0931 23.6747 76.3228 25.0039C73.7116 26.257 71.3872 26.6744 68.5276 26.0673C65.7839 25.4847 63.1809 24.4573 60.3451 24.2886C55.6861 24.0114 51.1597 25.7395 47.9844 29.2226C47.3786 29.8871 46.8904 30.6469 46.429 31.417C46.0598 32.0331 45.6436 32.6942 45.4866 33.4044C45.4118 33.7421 45.5509 34.5753 45.3827 34.852C45.2008 35.1508 44.5149 35.4249 44.2225 35.6466C43.6303 36.0959 43.1171 36.603 42.6426 37.1764C41.6348 38.3942 41.0801 39.6662 40.6135 41.1726C39.0626 46.1791 38.9312 52.134 40.9361 57.05C41.2034 57.7056 42.0316 59.073 42.5185 57.6692C42.6148 57.3918 42.3921 56.4619 42.3926 56.1819C42.3944 55.1537 42.9619 48.3464 45.4344 44.533C46.2392 43.2918 49.9601 38.6435 50.7202 38.6062C51.1228 39.2461 55.2108 43.3346 65.8185 42.8554C70.6047 42.6392 74.2855 40.4889 75.1693 39.5567C75.5581 41.6481 80.0804 44.7791 80.7695 46.0674C82.7602 49.789 83.2017 57.5221 83.9616 57.5076C84.7215 57.4931 85.267 55.5278 85.4233 55.1526C86.5844 52.3647 86.7821 48.8656 86.6583 45.8694C86.4967 42.0131 84.905 37.8458 82.0334 35.2024Z" fill="#28354B"/>
<g filter="url(#filter0_d_1054_2246)">
<path fill-rule="evenodd" clip-rule="evenodd" d="M50.6556 69.7695H51.698C57.2627 69.7695 61.148 66.5824 61.148 62.0205C61.148 58.0995 60.4612 54.2715 52.2537 54.2715H51.1424C42.9349 54.2715 42.248 58.0995 42.248 62.0205C42.248 66.8725 45.391 69.7695 50.6556 69.7695ZM43.7606 62.3999C43.7606 59.1262 43.7606 56.5403 51.0882 56.5403H52.3089C59.6366 56.5403 59.6366 59.1262 59.6366 62.3999C59.6366 65.8493 56.3725 68.2583 51.6986 68.2583H50.5536C44.9385 68.2583 43.7606 65.0725 43.7606 62.3999Z" fill="#252C2F"/>
<path fill-rule="evenodd" clip-rule="evenodd" d="M74.0892 69.7695H75.1316C80.6963 69.7695 84.5816 66.5824 84.5816 62.0205C84.5816 58.0995 83.8948 54.2715 75.6873 54.2715H74.576C66.3685 54.2715 65.6816 58.0995 65.6816 62.0205C65.6816 66.8725 68.8246 69.7695 74.0892 69.7695ZM67.1942 62.3999C67.1942 59.1262 67.1942 56.5403 74.5218 56.5403H75.7425C83.0702 56.5403 83.0702 59.1262 83.0702 62.3999C83.0702 65.8493 79.8061 68.2583 75.1322 68.2583H73.9872C68.3733 68.2583 67.1942 65.0725 67.1942 62.3999Z" fill="#252C2F"/>
<path d="M39.9615 56.4531C40.2229 56.1979 43.0819 54.2715 51.1297 54.2715C57.8775 54.2715 59.306 54.9718 61.4681 56.0299L61.6264 56.108C61.7767 56.1611 62.5454 56.4222 63.4446 56.451C64.2638 56.4158 64.9645 56.1938 65.1693 56.1226C67.6371 54.9224 70.0528 54.2715 75.6997 54.2715C83.7475 54.2715 86.6066 56.1979 86.8679 56.4531C87.4855 56.4531 87.9847 56.9407 87.9847 57.544V58.6348C87.9847 59.238 87.4855 59.7256 86.8679 59.7256C86.8679 59.7256 84.2592 59.7256 84.2592 60.8164C84.2592 61.9073 83.5175 59.238 83.5175 58.6348V57.5723C82.1554 57.0511 79.7173 56.0807 75.6997 56.0807C71.2236 56.0807 68.9944 56.8744 67.0822 57.6626L67.1036 57.7141L67.1026 58.4649L66.2645 60.4872L65.2293 60.0779C65.1369 60.0413 64.9374 59.9757 64.6607 59.9074C63.8896 59.7172 63.0968 59.6593 62.3957 59.8033C62.1384 59.8561 61.8998 59.9353 61.6808 60.0423L60.682 60.5304L59.6826 58.5792L59.727 57.7119L59.7575 57.6383C58.1084 56.8698 56.5878 56.0807 51.1297 56.0807C47.1124 56.0807 44.6743 57.0507 43.312 57.572V58.6348C43.312 59.238 42.1952 61.9073 42.1952 60.8164C42.1952 59.7256 39.9615 59.7256 39.9615 59.7256C39.3451 59.7256 38.8447 59.238 38.8447 58.6348V57.544C38.8447 56.9407 39.3451 56.4531 39.9615 56.4531Z" fill="#252C2F"/>
</g>
</g>
</g>
<defs>
<filter id="filter0_d_1054_2246" x="38.8447" y="54.2715" width="49.1396" height="15.498" filterUnits="userSpaceOnUse" color-interpolation-filters="sRGB">
<feFlood flood-opacity="0" result="BackgroundImageFix"/>
<feColorMatrix in="SourceAlpha" type="matrix" values="0 0 0 0 0 0 0 0 0 0 0 0 0 0 0 0 0 0 127 0" result="hardAlpha"/>
<feOffset/>
<feColorMatrix type="matrix" values="0 0 0 0 0 0 0 0 0 0 0 0 0 0 0 0 0 0 0.2 0"/>
<feBlend mode="normal" in2="BackgroundImageFix" result="effect1_dropShadow_1054_2246"/>
<feBlend mode="normal" in="SourceGraphic" in2="effect1_dropShadow_1054_2246" result="shape"/>
</filter>
</defs>
</svg>
