<svg width="19" height="19" viewBox="0 0 19 19" fill="none" xmlns="http://www.w3.org/2000/svg">
<path d="M11.8438 7.9375H16.5312C16.9627 7.9375 17.3125 7.58772 17.3125 7.15625C17.3125 6.72478 16.9627 6.375 16.5312 6.375H12.625V2.46875C12.625 2.03728 12.2752 1.6875 11.8438 1.6875C11.4123 1.6875 11.0625 2.03728 11.0625 2.46875V7.15625C11.0625 7.58772 11.4123 7.9375 11.8438 7.9375Z" fill="#999999"/>
<path d="M17.8646 2.24022C18.0111 2.09371 18.0938 1.8947 18.0938 1.6875C18.0938 1.4803 18.0114 1.28159 17.8649 1.13507L17.8582 1.12841C17.7123 0.98625 17.5162 0.90625 17.3125 0.90625C17.1053 0.90625 16.9066 0.98856 16.7601 1.13507L11.2916 6.60353C11.1451 6.75004 11.0625 6.94905 11.0625 7.15625C11.0625 7.16876 11.0628 7.18128 11.0634 7.19378C11.0727 7.38778 11.154 7.57134 11.2913 7.70868C11.4378 7.85519 11.6365 7.9375 11.8438 7.9375C12.051 7.9375 12.2497 7.85519 12.3962 7.70868L17.8646 2.24022Z" fill="#999999"/>
<path d="M6.375 12.625V16.5312C6.375 16.9627 6.72478 17.3125 7.15625 17.3125C7.58772 17.3125 7.9375 16.9627 7.9375 16.5312V11.8438C7.9375 11.4123 7.58772 11.0625 7.15625 11.0625H2.46875C2.03728 11.0625 1.6875 11.4123 1.6875 11.8438C1.6875 12.2752 2.03728 12.625 2.46875 12.625H6.375Z" fill="#999999"/>
<path d="M7.70838 12.3965C7.8549 12.25 7.9375 12.051 7.9375 11.8438C7.9375 11.6365 7.85519 11.4378 7.70868 11.2913L7.70193 11.2847C7.55605 11.1425 7.35995 11.0625 7.15625 11.0625C6.94905 11.0625 6.75034 11.1448 6.60382 11.2913L1.13537 16.7598C0.988853 16.9063 0.90625 17.1053 0.90625 17.3125C0.90625 17.325 0.906551 17.3375 0.907152 17.35C0.916482 17.544 0.997738 17.7276 1.13507 17.8649C1.28159 18.0114 1.4803 18.0938 1.6875 18.0938C1.8947 18.0938 2.09341 18.0114 2.23993 17.8649L7.70838 12.3965Z" fill="#999999"/>
</svg>
