<svg width="19" height="10" viewBox="0 0 19 10" fill="none" xmlns="http://www.w3.org/2000/svg">
<path d="M14.9785 5C14.9785 5.16576 14.9127 5.32473 14.7955 5.44194C14.6782 5.55915 14.5193 5.625 14.3535 5.625H4.35352C4.18776 5.625 4.02878 5.55915 3.91157 5.44194C3.79436 5.32473 3.72852 5.16576 3.72852 5C3.72852 4.83424 3.79436 4.67527 3.91157 4.55806C4.02878 4.44085 4.18776 4.375 4.35352 4.375H14.3535C14.5193 4.375 14.6782 4.44085 14.7955 4.55806C14.9127 4.67527 14.9785 4.83424 14.9785 5ZM17.4785 0.625H1.22852C1.06276 0.625 0.903784 0.690848 0.786574 0.808058C0.669364 0.925269 0.603516 1.08424 0.603516 1.25C0.603516 1.41576 0.669364 1.57473 0.786574 1.69194C0.903784 1.80915 1.06276 1.875 1.22852 1.875H17.4785C17.6443 1.875 17.8032 1.80915 17.9205 1.69194C18.0377 1.57473 18.1035 1.41576 18.1035 1.25C18.1035 1.08424 18.0377 0.925269 17.9205 0.808058C17.8032 0.690848 17.6443 0.625 17.4785 0.625ZM11.2285 8.125H7.47852C7.31276 8.125 7.15378 8.19085 7.03657 8.30806C6.91936 8.42527 6.85352 8.58424 6.85352 8.75C6.85352 8.91576 6.91936 9.07473 7.03657 9.19194C7.15378 9.30915 7.31276 9.375 7.47852 9.375H11.2285C11.3943 9.375 11.5532 9.30915 11.6705 9.19194C11.7877 9.07473 11.8535 8.91576 11.8535 8.75C11.8535 8.58424 11.7877 8.42527 11.6705 8.30806C11.5532 8.19085 11.3943 8.125 11.2285 8.125Z" fill="#999999"/>
</svg>
