<svg width="21" height="20" viewBox="0 0 21 20" fill="none" xmlns="http://www.w3.org/2000/svg">
<path d="M15.9785 10C15.9785 10.1658 15.9127 10.3247 15.7955 10.4419C15.6782 10.5592 15.5193 10.625 15.3535 10.625H5.35352C5.18776 10.625 5.02878 10.5592 4.91157 10.4419C4.79436 10.3247 4.72852 10.1658 4.72852 10C4.72852 9.83424 4.79436 9.67527 4.91157 9.55806C5.02878 9.44085 5.18776 9.375 5.35352 9.375H15.3535C15.5193 9.375 15.6782 9.44085 15.7955 9.55806C15.9127 9.67527 15.9785 9.83424 15.9785 10ZM18.4785 5.625H2.22852C2.06276 5.625 1.90378 5.69085 1.78657 5.80806C1.66936 5.92527 1.60352 6.08424 1.60352 6.25C1.60352 6.41576 1.66936 6.57473 1.78657 6.69194C1.90378 6.80915 2.06276 6.875 2.22852 6.875H18.4785C18.6443 6.875 18.8032 6.80915 18.9205 6.69194C19.0377 6.57473 19.1035 6.41576 19.1035 6.25C19.1035 6.08424 19.0377 5.92527 18.9205 5.80806C18.8032 5.69085 18.6443 5.625 18.4785 5.625ZM12.2285 13.125H8.47852C8.31276 13.125 8.15378 13.1908 8.03657 13.3081C7.91936 13.4253 7.85352 13.5842 7.85352 13.75C7.85352 13.9158 7.91936 14.0747 8.03657 14.1919C8.15378 14.3092 8.31276 14.375 8.47852 14.375H12.2285C12.3943 14.375 12.5532 14.3092 12.6705 14.1919C12.7877 14.0747 12.8535 13.9158 12.8535 13.75C12.8535 13.5842 12.7877 13.4253 12.6705 13.3081C12.5532 13.1908 12.3943 13.125 12.2285 13.125Z" fill="#999999"/>
</svg>
